<svg xmlns="http://www.w3.org/2000/svg" viewBox="0 0 320 80" fill="none" role="img" aria-label="DeenCore logo">
  <title>DeenCore</title>
  <defs>
    <linearGradient id="dcw-bg" x1="10" y1="8" x2="62" y2="64" gradientUnits="userSpaceOnUse">
      <stop offset="0" stop-color="#133F78"/>
      <stop offset="0.55" stop-color="#0A2448"/>
      <stop offset="1" stop-color="#071626"/>
    </linearGradient>
    <radialGradient id="dcw-glow" cx="0" cy="0" r="1" gradientUnits="userSpaceOnUse" gradientTransform="translate(24 20) rotate(40) scale(34)">
      <stop offset="0" stop-color="#6BC0FF" stop-opacity="0.35"/>
      <stop offset="1" stop-color="#6BC0FF" stop-opacity="0"/>
    </radialGradient>
    <linearGradient id="dcw-crescent" x1="25" y1="27" x2="40" y2="48" gradientUnits="userSpaceOnUse">
      <stop offset="0" stop-color="#F8DE9A"/>
      <stop offset="1" stop-color="#D4A853"/>
    </linearGradient>
    <mask id="dcw-crescent-cut">
      <rect width="80" height="80" fill="white"/>
      <circle cx="40" cy="34" r="14" fill="black"/>
    </mask>
  </defs>

  <g transform="translate(0 4)">
    <rect x="4" y="4" width="64" height="64" rx="18" fill="url(#dcw-bg)"/>
    <rect x="4.75" y="4.75" width="62.5" height="62.5" rx="17.25" stroke="#56A6D9" stroke-opacity="0.5" stroke-width="1.5"/>
    <circle cx="36" cy="36" r="27" stroke="#5D9D94" stroke-opacity="0.28" stroke-width="1"/>
    <circle cx="36" cy="36" r="27" fill="url(#dcw-glow)"/>
    <circle cx="33" cy="38" r="15" fill="url(#dcw-crescent)" mask="url(#dcw-crescent-cut)"/>
    <path
      d="M50 19.1L51.5 22.2L54.9 22.6L52.4 24.9L53.1 28.2L50 26.5L46.9 28.2L47.6 24.9L45.1 22.6L48.5 22.2L50 19.1Z"
      fill="#F4D48A"
    />
    <path d="M20 51.5H52" stroke="#5D9D94" stroke-opacity="0.38" stroke-width="1.4" stroke-linecap="round"/>
  </g>

  <text
    x="86"
    y="46"
    fill="#72C2B8"
    font-family="'Sora', 'Segoe UI', Arial, sans-serif"
    font-size="35"
    font-weight="300"
    letter-spacing="-0.8"
  >Deen</text>

  <text
    x="170"
    y="46"
    fill="#EAF4FF"
    font-family="'Sora', 'Segoe UI', Arial, sans-serif"
    font-size="35"
    font-weight="700"
    letter-spacing="-1.1"
  >Core</text>

  <text
    x="87"
    y="62"
    fill="#5D9D94"
    font-family="'DM Sans', 'Segoe UI', Arial, sans-serif"
    font-size="9"
    font-weight="600"
    letter-spacing="2.2"
    opacity="0.75"
  >QURAN  SALAH  REFLECT</text>
</svg>
